<?xml version="1.0" ?><!DOCTYPE svg  PUBLIC '-//W3C//DTD SVG 1.1//EN'  'http://www.w3.org/Graphics/SVG/1.1/DTD/svg11.dtd'><svg height="2048px" style="shape-rendering:geometricPrecision; text-rendering:geometricPrecision; image-rendering:optimizeQuality; fill-rule:evenodd; clip-rule:evenodd" viewBox="0 0 2048 2048" width="2048px" xml:space="preserve" xmlns="http://www.w3.org/2000/svg" xmlns:xlink="http://www.w3.org/1999/xlink"><defs><style type="text/css">
   <![CDATA[
    .fil1 {fill:none}
    .fil0 {fill:#424242}
   ]]>
  </style></defs><g id="Layer_x0020_1"><path class="fil0" d="M1775.99 622.602c0,-95.993 -34.7622,-183.393 -90.7642,-246.879 -56.4567,-64.0004 -134.469,-103.723 -220.402,-103.723l-881.688 0c-85.9288,0 -163.929,39.7217 -220.377,103.72 -55.9961,63.4867 -90.7513,150.889 -90.7513,246.882l0 802.804c0,95.9894 34.7551,183.39 90.7524,246.875 56.4485,63.9969 134.447,103.719 220.376,103.719l881.688 0c85.9347,0 163.945,-39.7229 220.402,-103.721 56.0032,-63.4843 90.7642,-150.884 90.7642,-246.873l0 -802.804zm-1194.25 19.9453c267.683,-303.043 717.037,-122.408 718.336,-121.899l0.375591 0.187795c1.00984,0.424016 353.706,144.028 232.611,525.892l-0.875198 2.1248c-142.099,294.764 -396.866,247.558 -472.392,225.868l0 145.527 -0.187795 2.1874c-0.0413386,0.292914 -13.2071,102.191 -132.998,145.928 -118.776,43.324 -226.903,-37.8189 -227.217,-38.0504l-6.56339 -4.83071 0 -8.04449 0 -168.964 27.3756 -11.1874c19.1291,19.5449 40.6489,35.55 60.7878,42.7477 8.8689,3.1689 17.2335,4.54725 24.6284,3.59764 6.6567,-0.855119 12.8634,-3.71693 18.3059,-9.04371 5.28071,-5.16969 10.0016,-12.7004 13.9571,-22.9772l0 -568.398 0 -16.0004 16.0004 0 188.405 0 16.0004 0 0 16.0004 0 312.164c50.7744,11.8311 252.831,45.1902 283.59,-164.126 4.67599,-269.571 -313.67,-268.185 -314.586,-268.188l-0.750001 0c-0.579922,-0.0307087 -201.431,-12.8327 -301.054,147.819 -73.3701,124.83 20.798,237.04 21.0662,237.366l9.76182 11.8713 -11.4484 10.1906 -136.089 121.136 -12.6024 11.2181 -10.5224 -13.2803c-0.601182,-0.759449 -212.476,-262.159 -4.85433,-545.711l0.937796 -1.12559z"/></g><rect class="fil1" height="2048" width="2048"/></svg>